<?xml version="1.0" encoding="utf-8"?>
<svg version="1.1" xmlns:xlink="http://www.w3.org/1999/xlink" width="34px" height="34px" preserveAspectRatio="xMinYMid meet" viewBox="1595 27  34 32" xmlns="http://www.w3.org/2000/svg">
  <path d="M 1337 472  L 1515 472  A 5 5 0 0 0 1520 467 L 1520 48  A 5 5 0 0 1 1525 43 L 1612 43  " stroke-width="2" stroke="#0099ff" fill="none" />
  <path d="M 1338.92920367321 468.5  A 3.5 3.5 0 0 0 1335.42920367321 472 A 3.5 3.5 0 0 0 1338.92920367321 475.5 A 3.5 3.5 0 0 0 1342.42920367321 472 A 3.5 3.5 0 0 0 1338.92920367321 468.5 Z M 1338.92920367321 470.5  A 1.5 1.5 0 0 1 1340.42920367321 472 A 1.5 1.5 0 0 1 1338.92920367321 473.5 A 1.5 1.5 0 0 1 1337.42920367321 472 A 1.5 1.5 0 0 1 1338.92920367321 470.5 Z M 1604.6 51  L 1614 43  L 1604.6 35  L 1608.2 43  L 1604.6 51  Z " fill-rule="nonzero" fill="#0099ff" stroke="none" />
</svg>