<?xml version="1.0" encoding="utf-8"?>
<svg version="1.1" xmlns:xlink="http://www.w3.org/1999/xlink" width="10px" height="10px" xmlns="http://www.w3.org/2000/svg">
  <g transform="matrix(1 0 0 1 -29 -327 )">
    <path d="M 5.77473958333333 8.27473958333333  C 5.81380208333333 8.23567708333333  5.83333333333333 8.18576388888889  5.83333333333333 8.125  L 5.83333333333333 6.875  C 5.83333333333333 6.81423611111111  5.81380208333333 6.76432291666667  5.77473958333333 6.72526041666667  C 5.73567708333333 6.68619791666667  5.68576388888889 6.66666666666667  5.625 6.66666666666667  L 4.375 6.66666666666667  C 4.31423611111111 6.66666666666667  4.26432291666667 6.68619791666667  4.22526041666667 6.72526041666667  C 4.18619791666667 6.76432291666667  4.16666666666667 6.81423611111111  4.16666666666667 6.875  L 4.16666666666667 8.125  C 4.16666666666667 8.18576388888889  4.18619791666667 8.23567708333333  4.22526041666667 8.27473958333333  C 4.26432291666667 8.31380208333333  4.31423611111111 8.33333333333333  4.375 8.33333333333333  L 5.625 8.33333333333333  C 5.68576388888889 8.33333333333333  5.73567708333333 8.31380208333333  5.77473958333333 8.27473958333333  Z M 7.41861979166667 4.27734375  C 7.47287326388889 4.11675347222222  7.5 3.94097222222222  7.5 3.75  C 7.5 3.36805555555555  7.37955729166667 3.01432291666667  7.138671875 2.68880208333333  C 6.89778645833333 2.36328125  6.59722222222222 2.11154513888889  6.23697916666667 1.93359375  C 5.87673611111111 1.75564236111111  5.5078125 1.66666666666667  5.13020833333333 1.66666666666667  C 4.07552083333333 1.66666666666667  3.27039930555556 2.12890625  2.71484375 3.05338541666667  C 2.64973958333333 3.15755208333333  2.66710069444444 3.24869791666667  2.76692708333333 3.32682291666667  L 3.62630208333333 3.97786458333333  C 3.65668402777778 4.00390625  3.69791666666667 4.01692708333333  3.75 4.01692708333333  C 3.81944444444444 4.01692708333333  3.87369791666667 3.99088541666667  3.91276041666667 3.93880208333333  C 4.14279513888889 3.64366319444444  4.32942708333333 3.44401041666667  4.47265625 3.33984375  C 4.62022569444444 3.23567708333333  4.80685763888889 3.18359375  5.03255208333333 3.18359375  C 5.24088541666667 3.18359375  5.42643229166667 3.24001736111111  5.58919270833333 3.35286458333333  C 5.751953125 3.46571180555555  5.83333333333333 3.59375  5.83333333333333 3.73697916666667  C 5.83333333333333 3.90190972222222  5.78993055555556 4.03428819444444  5.703125 4.13411458333333  C 5.61631944444445 4.23394097222222  5.46875 4.33159722222222  5.26041666666667 4.42708333333333  C 4.98697916666667 4.54861111111111  4.736328125 4.736328125  4.50846354166667 4.990234375  C 4.28059895833333 5.244140625  4.16666666666667 5.51649305555556  4.16666666666667 5.80729166666667  L 4.16666666666667 6.04166666666667  C 4.16666666666667 6.10243055555556  4.18619791666667 6.15234375  4.22526041666667 6.19140625  C 4.26432291666667 6.23046875  4.31423611111111 6.25  4.375 6.25  L 5.625 6.25  C 5.68576388888889 6.25  5.73567708333333 6.23046875  5.77473958333333 6.19140625  C 5.81380208333333 6.15234375  5.83333333333333 6.10243055555556  5.83333333333333 6.04166666666667  C 5.83333333333333 5.95920138888889  5.87999131944445 5.85177951388889  5.97330729166667 5.71940104166667  C 6.06662326388889 5.58702256944444  6.18489583333333 5.47960069444444  6.328125 5.39713541666667  C 6.46701388888889 5.31901041666667  6.57335069444445 5.25716145833333  6.64713541666667 5.21158854166667  C 6.72092013888889 5.166015625  6.82074652777778 5.09006076388889  6.94661458333333 4.98372395833333  C 7.07248263888889 4.87738715277778  7.16905381944445 4.77322048611111  7.236328125 4.67122395833333  C 7.30360243055556 4.56922743055555  7.36436631944445 4.43793402777778  7.41861979166667 4.27734375  Z M 9.32942708333333 2.490234375  C 9.77647569444444 3.25629340277778  10 4.09288194444444  10 5  C 10 5.90711805555556  9.77647569444444 6.74370659722222  9.32942708333333 7.509765625  C 8.88237847222222 8.27582465277778  8.27582465277778 8.88237847222222  7.509765625 9.32942708333333  C 6.74370659722222 9.77647569444444  5.90711805555556 10  5 10  C 4.09288194444444 10  3.25629340277778 9.77647569444444  2.490234375 9.32942708333333  C 1.72417534722222 8.88237847222222  1.11762152777778 8.27582465277778  0.670572916666667 7.509765625  C 0.223524305555556 6.74370659722222  0 5.90711805555556  0 5  C 0 4.09288194444444  0.223524305555556 3.25629340277778  0.670572916666667 2.490234375  C 1.11762152777778 1.72417534722222  1.72417534722222 1.11762152777778  2.490234375 0.670572916666666  C 3.25629340277778 0.223524305555555  4.09288194444444 0  5 0  C 5.90711805555556 0  6.74370659722222 0.223524305555555  7.509765625 0.670572916666666  C 8.27582465277778 1.11762152777778  8.88237847222222 1.72417534722222  9.32942708333333 2.490234375  Z " fill-rule="nonzero" fill="#000000" stroke="none" transform="matrix(1 0 0 1 29 327 )" />
  </g>
</svg>