<?xml version="1.0" encoding="utf-8"?>
<svg version="1.1" xmlns:xlink="http://www.w3.org/1999/xlink" width="20px" height="21px" preserveAspectRatio="xMidYMin meet" viewBox="322 198  18 21" xmlns="http://www.w3.org/2000/svg">
  <path d="M 331 206  L 331 80  A 5 5 0 0 1 336 75 L 481 75  " stroke-width="2" stroke="#0099ff" fill="none" />
  <path d="M 331 205  A 3.5 3.5 0 0 0 327.5 208.5 A 3.5 3.5 0 0 0 331 212 A 3.5 3.5 0 0 0 334.5 208.5 A 3.5 3.5 0 0 0 331 205 Z M 331 207  A 1.5 1.5 0 0 1 332.5 208.5 A 1.5 1.5 0 0 1 331 210 A 1.5 1.5 0 0 1 329.5 208.5 A 1.5 1.5 0 0 1 331 207 Z M 473.6 83  L 483 75  L 473.6 67  L 477.2 75  L 473.6 83  Z " fill-rule="nonzero" fill="#0099ff" stroke="none" />
</svg>