<?xml version="1.0" encoding="utf-8"?>
<svg version="1.1" xmlns:xlink="http://www.w3.org/1999/xlink" width="10px" height="202px" preserveAspectRatio="xMidYMin meet" viewBox="896 38  8 202" xmlns="http://www.w3.org/2000/svg">
  <path d="M 842 235  L 895 235  A 5 5 0 0 0 900 230 L 900 48  A 5 5 0 0 1 905 43 L 971 43  " stroke-width="2" stroke="#0099ff" fill="none" />
  <path d="M 839.5 231.5  A 3.5 3.5 0 0 0 836 235 A 3.5 3.5 0 0 0 839.5 238.5 A 3.5 3.5 0 0 0 843 235 A 3.5 3.5 0 0 0 839.5 231.5 Z M 839.5 233.5  A 1.5 1.5 0 0 1 841 235 A 1.5 1.5 0 0 1 839.5 236.5 A 1.5 1.5 0 0 1 838 235 A 1.5 1.5 0 0 1 839.5 233.5 Z M 963.6 51  L 973 43  L 963.6 35  L 967.2 43  L 963.6 51  Z " fill-rule="nonzero" fill="#0099ff" stroke="none" />
</svg>