<?xml version="1.0" encoding="utf-8"?>
<svg version="1.1" xmlns:xlink="http://www.w3.org/1999/xlink" width="22px" height="17px" xmlns="http://www.w3.org/2000/svg">
  <g transform="matrix(1 0 0 1 -82 -81 )">
    <path d="M 8.66822916666661 7.72866586538458  C 9.31371527777776 7.15314503205127  10.0909722222221 6.86538461538458  11 6.86538461538458  C 11.9090277777779 6.86538461538458  12.6862847222222 7.15314503205127  13.3317708333334 7.72866586538458  C 13.9772569444444 8.30418669871796  14.3 8.9971955128205  14.3 9.80769230769232  C 14.3 10.6181891025641  13.9772569444444 11.3111979166667  13.3317708333334 11.88671875  C 12.6862847222222 12.4622395833333  11.9090277777779 12.75  11 12.75  C 10.0909722222221 12.75  9.31371527777776 12.4622395833333  8.66822916666661 11.88671875  C 8.02274305555557 11.3111979166667  7.70000000000005 10.6181891025641  7.70000000000005 9.80769230769232  C 7.70000000000005 8.9971955128205  8.02274305555557 8.30418669871796  8.66822916666661 7.72866586538458  Z M 16.5 2.61538461538458  L 19.0666666666666 2.61538461538458  C 19.8763888888889 2.61538461538458  20.5677083333334 2.87079326923077  21.140625 3.38161057692309  C 21.7135416666666 3.89242788461542  22 4.50881410256409  22 5.23076923076923  L 22 14.3846153846154  C 22 15.1065705128205  21.7135416666666 15.7229567307692  21.140625 16.2337740384615  C 20.5677083333334 16.7445913461538  19.8763888888889 17  19.0666666666666 17  L 2.93333333333339 17  C 2.12361111111113 17  1.43229166666663 16.7445913461538  0.859375 16.2337740384615  C 0.286458333333371 15.7229567307692  0 15.1065705128205  0 14.3846153846154  L 0 5.23076923076923  C 0 4.50881410256409  0.286458333333371 3.89242788461542  0.859375 3.38161057692309  C 1.43229166666663 2.87079326923077  2.12361111111113 2.61538461538458  2.93333333333339 2.61538461538458  L 5.5 2.61538461538458  L 6.08437500000002 1.22596153846155  C 6.22951388888896 0.892227564102541  6.49496527777785 0.604467147435912  6.88072916666658 0.362680288461547  C 7.26649305555554 0.120893429487182  7.66180555555559 0  8.06666666666661 0  L 13.9333333333334 0  C 14.3381944444444 0  14.7335069444445 0.120893429487182  15.1192708333334 0.362680288461547  C 15.5050347222221 0.604467147435912  15.770486111111 0.892227564102541  15.915625 1.22596153846155  L 16.5 2.61538461538458  Z M 7.37343750000002 13.0411658653846  C 8.37795138888896 13.9367988782051  9.58680555555554 14.3846153846154  11 14.3846153846154  C 12.4131944444445 14.3846153846154  13.622048611111 13.9367988782051  14.6265625 13.0411658653846  C 15.6310763888889 12.1455328525641  16.1333333333333 11.0677083333333  16.1333333333333 9.80769230769232  C 16.1333333333333 8.54767628205127  15.6310763888889 7.4698517628205  14.6265625 6.57421875  C 13.622048611111 5.6785857371795  12.4131944444445 5.23076923076923  11 5.23076923076923  C 9.58680555555554 5.23076923076923  8.37795138888896 5.6785857371795  7.37343750000002 6.57421875  C 6.36892361111109 7.4698517628205  5.86666666666667 8.54767628205127  5.86666666666667 9.80769230769232  C 5.86666666666667 11.0677083333333  6.36892361111109 12.1455328525641  7.37343750000002 13.0411658653846  Z " fill-rule="nonzero" fill="#ffffff" stroke="none" transform="matrix(1 0 0 1 82 81 )" />
  </g>
</svg>