<?xml version="1.0" encoding="utf-8"?>
<svg version="1.1" xmlns:xlink="http://www.w3.org/1999/xlink" width="10px" height="15px" xmlns="http://www.w3.org/2000/svg">
  <g transform="matrix(1 0 0 1 -338 -95 )">
    <path d="M 5.92132505175984 7.15430861723447  C 5.99033816425121 7.25450901803607  6.02484472049689 7.36973947895792  6.02484472049689 7.5  C 6.02484472049689 7.63026052104208  5.99033816425121 7.74549098196393  5.92132505175984 7.84569138276553  L 1.09730848861284 14.8496993987976  C 1.02829537612146 14.9498997995992  0.948930296756384 15  0.859213250517598 15  C 0.769496204278813 15  0.690131124913734 14.9498997995992  0.62111801242236 14.8496993987976  L 0.10351966873706 14.0981963927856  C 0.0345065562456867 13.997995991984  0 13.8827655310621  0 13.75250501002  C 0 13.622244488978  0.0345065562456867 13.5070140280561  0.10351966873706 13.4068136272545  L 4.17184265010352 7.5  L 0.10351966873706 1.59318637274549  C 0.0345065562456867 1.49298597194389  0 1.37775551102204  0 1.24749498997996  C 0 1.11723446893787  0.0345065562456867 1.00200400801603  0.10351966873706 0.901803607214428  L 0.62111801242236 0.150300601202405  C 0.690131124913734 0.0501002004008011  0.769496204278813 0  0.859213250517598 0  C 0.948930296756384 0  1.02829537612146 0.0501002004008011  1.09730848861284 0.150300601202405  L 5.92132505175984 7.15430861723447  Z M 9.89648033126294 7.15430861723447  C 9.96549344375431 7.25450901803607  10 7.36973947895792  10 7.5  C 10 7.63026052104208  9.96549344375431 7.74549098196393  9.89648033126294 7.84569138276553  L 5.07246376811594 14.8496993987976  C 5.00345065562457 14.9498997995992  4.92408557625949 15  4.8343685300207 15  C 4.74465148378192 15  4.66528640441684 14.9498997995992  4.59627329192547 14.8496993987976  L 4.07867494824017 14.0981963927856  C 4.00966183574879 13.997995991984  3.97515527950311 13.8827655310621  3.97515527950311 13.75250501002  C 3.97515527950311 13.622244488978  4.00966183574879 13.5070140280561  4.07867494824017 13.4068136272545  L 8.14699792960663 7.5  L 4.07867494824017 1.59318637274549  C 4.00966183574879 1.49298597194389  3.97515527950311 1.37775551102204  3.97515527950311 1.24749498997996  C 3.97515527950311 1.11723446893787  4.00966183574879 1.00200400801603  4.07867494824017 0.901803607214428  L 4.59627329192547 0.150300601202405  C 4.66528640441684 0.0501002004008011  4.74465148378192 0  4.8343685300207 0  C 4.92408557625949 0  5.00345065562457 0.0501002004008011  5.07246376811594 0.150300601202405  L 9.89648033126294 7.15430861723447  Z " fill-rule="nonzero" fill="#169bd5" stroke="none" transform="matrix(1 0 0 1 338 95 )" />
  </g>
</svg>