<?xml version="1.0" encoding="utf-8"?>
<svg version="1.1" xmlns:xlink="http://www.w3.org/1999/xlink" width="10px" height="10px" xmlns="http://www.w3.org/2000/svg">
  <g transform="matrix(1 0 0 1 -315 -470 )">
    <path d="M 4.87417218543046 5.12582781456954  C 4.95805739514349 5.20971302428256  5 5.30905077262693  5 5.42384105960265  L 5 8.39072847682119  C 5 8.50551876379691  4.95805739514349 8.60485651214128  4.87417218543046 8.6887417218543  C 4.79028697571744 8.77262693156733  4.69094922737307 8.81456953642384  4.57615894039735 8.81456953642384  C 4.46136865342163 8.81456953642384  4.36203090507726 8.77262693156733  4.27814569536424 8.6887417218543  L 3.32450331125828 7.73509933774834  L 1.12582781456954 9.93377483443709  C 1.08167770419426 9.97792494481236  1.03090507726269 10  0.973509933774834 10  C 0.916114790286976 10  0.865342163355409 9.97792494481236  0.821192052980132 9.93377483443709  L 0.0662251655629139 9.17880794701987  C 0.022075055187638 9.13465783664459  0 9.08388520971302  0 9.02649006622516  C 0 8.96909492273731  0.022075055187638 8.91832229580574  0.0662251655629139 8.87417218543046  L 2.26490066225166 6.67549668874172  L 1.3112582781457 5.72185430463576  C 1.22737306843267 5.63796909492274  1.18543046357616 5.53863134657837  1.18543046357616 5.42384105960265  C 1.18543046357616 5.30905077262693  1.22737306843267 5.20971302428256  1.3112582781457 5.12582781456954  C 1.39514348785872 5.04194260485651  1.49448123620309 5  1.60927152317881 5  L 4.57615894039735 5  C 4.69094922737307 5  4.79028697571744 5.04194260485651  4.87417218543046 5.12582781456954  Z M 9.93377483443709 0.821192052980132  C 9.97792494481236 0.865342163355407  10 0.916114790286975  10 0.973509933774834  C 10 1.03090507726269  9.97792494481236 1.08167770419426  9.93377483443709 1.12582781456954  L 7.73509933774834 3.32450331125828  L 8.6887417218543 4.27814569536424  C 8.77262693156733 4.36203090507726  8.81456953642384 4.46136865342163  8.81456953642384 4.57615894039735  C 8.81456953642384 4.69094922737307  8.77262693156733 4.79028697571744  8.6887417218543 4.87417218543046  C 8.60485651214128 4.95805739514349  8.50551876379691 5  8.39072847682119 5  L 5.42384105960265 5  C 5.30905077262693 5  5.20971302428256 4.95805739514349  5.12582781456954 4.87417218543046  C 5.04194260485651 4.79028697571744  5 4.69094922737307  5 4.57615894039735  L 5 1.60927152317881  C 5 1.49448123620309  5.04194260485651 1.39514348785872  5.12582781456954 1.31125827814569  C 5.20971302428256 1.22737306843267  5.30905077262693 1.18543046357616  5.42384105960265 1.18543046357616  C 5.53863134657837 1.18543046357616  5.63796909492274 1.22737306843267  5.72185430463576 1.31125827814569  L 6.67549668874172 2.26490066225166  L 8.87417218543046 0.0662251655629142  C 8.91832229580574 0.022075055187637  8.96909492273731 0  9.02649006622516 0  C 9.08388520971302 0  9.13465783664459 0.022075055187637  9.17880794701987 0.0662251655629142  L 9.93377483443709 0.821192052980132  Z " fill-rule="nonzero" fill="#169bd5" stroke="none" transform="matrix(1 0 0 1 315 470 )" />
  </g>
</svg>