<?xml version="1.0" encoding="utf-8"?>
<svg version="1.1" xmlns:xlink="http://www.w3.org/1999/xlink" width="12px" height="12px" viewBox="2560 1161  12 12" xmlns="http://www.w3.org/2000/svg">
  <path d="M 2566 1161  C 2569.36 1161  2572 1163.64  2572 1167  C 2572 1170.36  2569.36 1173  2566 1173  C 2562.64 1173  2560 1170.36  2560 1167  C 2560 1163.64  2562.64 1161  2566 1161  Z " fill-rule="nonzero" fill="#ffffff" stroke="none" />
  <path d="M 2566 1161.5  C 2569.08 1161.5  2571.5 1163.92  2571.5 1167  C 2571.5 1170.08  2569.08 1172.5  2566 1172.5  C 2562.92 1172.5  2560.5 1170.08  2560.5 1167  C 2560.5 1163.92  2562.92 1161.5  2566 1161.5  Z " stroke-width="1" stroke="#797979" fill="none" />
  <path d="M 2566 1170  C 2564.32 1170  2563 1168.68  2563 1167  C 2563 1165.32  2564.32 1164  2566 1164  C 2567.68 1164  2569 1165.32  2569 1167  C 2569 1168.68  2567.68 1170  2566 1170  " fill-rule="nonzero" fill="#797979" stroke="none" />
</svg>