<?xml version="1.0" encoding="utf-8"?>
<svg version="1.1" xmlns:xlink="http://www.w3.org/1999/xlink" width="20px" height="15px" xmlns="http://www.w3.org/2000/svg">
  <g transform="matrix(1 0 0 1 -100 -417 )">
    <path d="M 9.5263671875 6.4013671875  C 8.7939453125 7.1337890625  7.91015625 7.5  6.875 7.5  C 5.83984375 7.5  4.9560546875 7.1337890625  4.2236328125 6.4013671875  C 3.4912109375 5.6689453125  3.125 4.78515625  3.125 3.75  C 3.125 2.71484375  3.4912109375 1.8310546875  4.2236328125 1.0986328125  C 4.9560546875 0.3662109375  5.83984375 0  6.875 0  C 7.91015625 0  8.7939453125 0.3662109375  9.5263671875 1.0986328125  C 10.2587890625 1.8310546875  10.625 2.71484375  10.625 3.75  C 10.625 4.78515625  10.2587890625 5.6689453125  9.5263671875 6.4013671875  Z M 16.25 5.3125  L 16.25 8.75  L 19.6875 8.75  C 19.7721354166667 8.75  19.8453776041667 8.78092447916666  19.9072265625 8.8427734375  C 19.9690755208333 8.90462239583333  20 8.97786458333333  20 9.0625  L 20 10.9375  C 20 11.0221354166667  19.9690755208333 11.0953776041667  19.9072265625 11.1572265625  C 19.8453776041667 11.2190755208333  19.7721354166667 11.25  19.6875 11.25  L 16.25 11.25  L 16.25 14.6875  C 16.25 14.7721354166667  16.2190755208333 14.8453776041667  16.1572265625 14.9072265625  C 16.0953776041667 14.9690755208333  16.0221354166667 15  15.9375 15  L 14.0625 15  C 13.9778645833333 15  13.9046223958333 14.9690755208333  13.8427734375 14.9072265625  C 13.7809244791667 14.8453776041667  13.75 14.7721354166667  13.75 14.6875  L 13.75 11.25  L 10.3125 11.25  C 10.2278645833333 11.25  10.1546223958333 11.2190755208333  10.0927734375 11.1572265625  C 10.0309244791667 11.0953776041667  10 11.0221354166667  10 10.9375  L 10 9.0625  C 10 8.97786458333333  10.0309244791667 8.90462239583333  10.0927734375 8.8427734375  C 10.1546223958333 8.78092447916666  10.2278645833333 8.75  10.3125 8.75  L 13.75 8.75  L 13.75 5.3125  C 13.75 5.22786458333333  13.7809244791667 5.15462239583333  13.8427734375 5.0927734375  C 13.9046223958333 5.03092447916667  13.9778645833333 5  14.0625 5  L 15.9375 5  C 16.0221354166667 5  16.0953776041667 5.03092447916667  16.1572265625 5.0927734375  C 16.2190755208333 5.15462239583333  16.25 5.22786458333333  16.25 5.3125  Z M 9.0625 9.0625  L 9.0625 10.9375  C 9.0625 11.2760416666667  9.18619791666667 11.5690104166667  9.43359375 11.81640625  C 9.68098958333333 12.0638020833333  9.97395833333333 12.1875  10.3125 12.1875  L 12.8125 12.1875  L 12.8125 14.51171875  C 12.3697916666667 14.8372395833333  11.8131510416667 15  11.142578125 15  L 2.607421875 15  C 1.81966145833333 15  1.18815104166667 14.775390625  0.712890625 14.326171875  C 0.237630208333333 13.876953125  0 13.2584635416667  0 12.470703125  C 0 12.1256510416667  0.0113932291666667 11.7887369791667  0.0341796875 11.4599609375  C 0.0569661458333333 11.1311848958333  0.1025390625 10.7763671875  0.1708984375 10.3955078125  C 0.2392578125 10.0146484375  0.325520833333333 9.66145833333333  0.4296875 9.3359375  C 0.533854166666667 9.01041666666667  0.673828125 8.69303385416666  0.849609375 8.3837890625  C 1.025390625 8.07454427083333  1.22721354166667 7.81087239583333  1.455078125 7.5927734375  C 1.68294270833333 7.37467447916667  1.96126302083333 7.20052083333333  2.2900390625 7.0703125  C 2.61881510416667 6.94010416666667  2.98177083333333 6.875  3.37890625 6.875  C 3.50260416666667 6.875  3.62955729166667 6.93033854166667  3.759765625 7.041015625  C 4.27408854166667 7.43815104166667  4.77701822916667 7.73600260416667  5.2685546875 7.9345703125  C 5.76009114583333 8.13313802083333  6.29557291666667 8.232421875  6.875 8.232421875  C 7.45442708333333 8.232421875  7.98990885416667 8.13313802083333  8.4814453125 7.9345703125  C 8.97298177083333 7.73600260416667  9.47591145833333 7.43815104166667  9.990234375 7.041015625  C 10.1204427083333 6.93033854166667  10.2473958333333 6.875  10.37109375 6.875  C 11.23046875 6.875  11.9368489583333 7.1875  12.490234375 7.8125  L 10.3125 7.8125  C 9.97395833333333 7.8125  9.68098958333333 7.93619791666667  9.43359375 8.18359375  C 9.18619791666667 8.43098958333333  9.0625 8.72395833333333  9.0625 9.0625  Z " fill-rule="nonzero" fill="#169bd5" stroke="none" transform="matrix(1 0 0 1 100 417 )" />
  </g>
</svg>