<?xml version="1.0" encoding="utf-8"?>
<svg version="1.1" xmlns:xlink="http://www.w3.org/1999/xlink" width="10px" height="14px" xmlns="http://www.w3.org/2000/svg">
  <g transform="matrix(1 0 0 1 -34 -65 )">
    <path d="M 6.09055501460565 13.9055397727273  C 6.02888672508926 13.9685132575758  5.95585848750406 14  5.87147030185005 14  L 4.1966893865628 14  C 4.1123012009088 14  4.0392729633236 13.9701704545455  3.97760467380721 13.9105113636364  C 3.91593638429082 13.8508522727273  3.88510223953262 13.7746212121212  3.88510223953262 13.6818181818182  L 3.88510223953262 10.4005681818182  L 1.08081791626095 10.4005681818182  C 0.996429730606946 10.4005681818182  0.923401493021746 10.3707386363636  0.861733203505355 10.3110795454545  C 0.800064913988965 10.2514204545455  0.769230769230769 10.1751893939394  0.769230769230769 10.0823863636364  L 0.769230769230769 9.05823863636364  C 0.769230769230769 8.97206439393939  0.800064913988965 8.89749053030303  0.861733203505355 8.83451704545455  C 0.923401493021746 8.77154356060606  0.996429730606946 8.74005681818182  1.08081791626095 8.74005681818182  L 3.88510223953262 8.74005681818182  L 3.88510223953262 7.89488636363636  L 1.08081791626095 7.89488636363636  C 0.996429730606946 7.89488636363636  0.923401493021746 7.86505681818182  0.861733203505355 7.80539772727273  C 0.800064913988965 7.74573863636364  0.769230769230769 7.66950757575758  0.769230769230769 7.57670454545455  L 0.769230769230769 6.54261363636364  C 0.769230769230769 6.45643939393939  0.800064913988965 6.38186553030303  0.861733203505355 6.31889204545454  C 0.923401493021746 6.25591856060606  0.996429730606946 6.22443181818182  1.08081791626095 6.22443181818182  L 3.16455696202532 6.22443181818182  L 0.0389483933787731 0.477272727272727  C -0.0129827977929244 0.371212121212121  -0.0129827977929244 0.265151515151513  0.0389483933787731 0.159090909090909  C 0.103862382343395 0.053030303030303  0.194741966893866 0  0.311587147030185 0  L 2.20058422590068 0  C 2.32392080493346 0  2.41804608893217 0.0596590909090911  2.48296007789679 0.178977272727273  L 4.57643622200584 4.40482954545454  C 4.69977280103863 4.65672348484848  4.88153197013957 5.07102272727273  5.12171372930867 5.64772727272727  C 5.18662771827329 5.48863636363636  5.28562155144434 5.26325757575757  5.41869522882181 4.97159090909091  C 5.55176890619929 4.67992424242424  5.64102564102564 4.47774621212121  5.68646543330088 4.36505681818182  L 7.54625121713729 0.188920454545455  C 7.59818240830899 0.0629734848484835  7.69230769230769 0  7.8286270691334 0  L 9.68841285296982 0  C 9.79876663420967 0  9.88640051931191 0.053030303030303  9.95131450827653 0.159090909090909  C 10.0097370983447 0.251893939393939  10.0129827977929 0.354640151515151  9.96105160662123 0.467329545454545  L 6.91333982473223 6.22443181818182  L 9.00681596884129 6.22443181818182  C 9.09120415449529 6.22443181818182  9.16423239208049 6.25591856060606  9.22590068159688 6.31889204545454  C 9.28756897111328 6.38186553030303  9.31840311587147 6.45643939393939  9.31840311587147 6.54261363636364  L 9.31840311587147 7.57670454545455  C 9.31840311587147 7.66950757575758  9.28756897111328 7.74573863636364  9.22590068159688 7.80539772727273  C 9.16423239208049 7.86505681818182  9.09120415449529 7.89488636363636  9.00681596884129 7.89488636363636  L 6.18305744888023 7.89488636363636  L 6.18305744888023 8.74005681818182  L 9.00681596884129 8.74005681818182  C 9.09120415449529 8.74005681818182  9.16423239208049 8.77154356060606  9.22590068159688 8.83451704545455  C 9.28756897111328 8.89749053030303  9.31840311587147 8.97206439393939  9.31840311587147 9.05823863636364  L 9.31840311587147 10.0823863636364  C 9.31840311587147 10.1751893939394  9.28756897111328 10.2514204545455  9.22590068159688 10.3110795454545  C 9.16423239208049 10.3707386363636  9.09120415449529 10.4005681818182  9.00681596884129 10.4005681818182  L 6.18305744888023 10.4005681818182  L 6.18305744888023 13.6818181818182  C 6.18305744888023 13.7679924242424  6.15222330412204 13.8425662878788  6.09055501460565 13.9055397727273  Z " fill-rule="nonzero" fill="#000000" stroke="none" transform="matrix(1 0 0 1 34 65 )" />
  </g>
</svg>