<?xml version="1.0" encoding="utf-8"?>
<svg version="1.1" xmlns:xlink="http://www.w3.org/1999/xlink" width="10px" height="629px" preserveAspectRatio="xMidYMin meet" viewBox="180 70  8 629" xmlns="http://www.w3.org/2000/svg">
  <path d="M 184 693  L 184 80  A 5 5 0 0 1 189 75 L 446 75  " stroke-width="2" stroke="#0099ff" fill="none" />
  <path d="M 184 692  A 3.5 3.5 0 0 0 180.5 695.5 A 3.5 3.5 0 0 0 184 699 A 3.5 3.5 0 0 0 187.5 695.5 A 3.5 3.5 0 0 0 184 692 Z M 184 694  A 1.5 1.5 0 0 1 185.5 695.5 A 1.5 1.5 0 0 1 184 697 A 1.5 1.5 0 0 1 182.5 695.5 A 1.5 1.5 0 0 1 184 694 Z M 438.6 83  L 448 75  L 438.6 67  L 442.2 75  L 438.6 83  Z " fill-rule="nonzero" fill="#0099ff" stroke="none" />
</svg>