<?xml version="1.0" encoding="utf-8"?>
<svg version="1.1" xmlns:xlink="http://www.w3.org/1999/xlink" width="20px" height="21px" preserveAspectRatio="xMidYMin meet" viewBox="324 342  18 21" xmlns="http://www.w3.org/2000/svg">
  <path d="M 333 355  L 333 892  A 5 5 0 0 0 338 897 L 454 897  " stroke-width="2" stroke="#0099ff" fill="none" />
  <path d="M 333 349  A 3.5 3.5 0 0 0 329.5 352.5 A 3.5 3.5 0 0 0 333 356 A 3.5 3.5 0 0 0 336.5 352.5 A 3.5 3.5 0 0 0 333 349 Z M 333 351  A 1.5 1.5 0 0 1 334.5 352.5 A 1.5 1.5 0 0 1 333 354 A 1.5 1.5 0 0 1 331.5 352.5 A 1.5 1.5 0 0 1 333 351 Z M 446.6 905  L 456 897  L 446.6 889  L 450.2 897  L 446.6 905  Z " fill-rule="nonzero" fill="#0099ff" stroke="none" />
</svg>