<?xml version="1.0" encoding="utf-8"?>
<svg version="1.1" xmlns:xlink="http://www.w3.org/1999/xlink" width="10px" height="193px" preserveAspectRatio="xMidYMin meet" viewBox="1336 70  8 193" xmlns="http://www.w3.org/2000/svg">
  <path d="M 1279 258  L 1335 258  A 5 5 0 0 0 1340 253 L 1340 80  A 5 5 0 0 1 1345 75 L 1423 75  " stroke-width="2" stroke="#0099ff" fill="none" />
  <path d="M 1276.5 254.5  A 3.5 3.5 0 0 0 1273 258 A 3.5 3.5 0 0 0 1276.5 261.5 A 3.5 3.5 0 0 0 1280 258 A 3.5 3.5 0 0 0 1276.5 254.5 Z M 1276.5 256.5  A 1.5 1.5 0 0 1 1278 258 A 1.5 1.5 0 0 1 1276.5 259.5 A 1.5 1.5 0 0 1 1275 258 A 1.5 1.5 0 0 1 1276.5 256.5 Z M 1415.6 83  L 1425 75  L 1415.6 67  L 1419.2 75  L 1415.6 83  Z " fill-rule="nonzero" fill="#0099ff" stroke="none" />
</svg>