<?xml version="1.0" encoding="utf-8"?>
<svg version="1.1" xmlns:xlink="http://www.w3.org/1999/xlink" width="12px" height="12px" viewBox="3055 1161  12 12" xmlns="http://www.w3.org/2000/svg">
  <path d="M 3061 1161  C 3064.36 1161  3067 1163.64  3067 1167  C 3067 1170.36  3064.36 1173  3061 1173  C 3057.64 1173  3055 1170.36  3055 1167  C 3055 1163.64  3057.64 1161  3061 1161  Z " fill-rule="nonzero" fill="#f0f0f0" stroke="none" />
  <path d="M 3061 1161.5  C 3064.08 1161.5  3066.5 1163.92  3066.5 1167  C 3066.5 1170.08  3064.08 1172.5  3061 1172.5  C 3057.92 1172.5  3055.5 1170.08  3055.5 1167  C 3055.5 1163.92  3057.92 1161.5  3061 1161.5  Z " stroke-width="1" stroke="#797979" fill="none" />
  <path d="M 3061 1170  C 3059.32 1170  3058 1168.68  3058 1167  C 3058 1165.32  3059.32 1164  3061 1164  C 3062.68 1164  3064 1165.32  3064 1167  C 3064 1168.68  3062.68 1170  3061 1170  " fill-rule="nonzero" fill="#797979" stroke="none" />
</svg>