<?xml version="1.0" encoding="utf-8"?>
<svg version="1.1" xmlns:xlink="http://www.w3.org/1999/xlink" width="15px" height="25px" xmlns="http://www.w3.org/2000/svg">
  <g transform="matrix(1 0 0 1 -3096 -1153 )">
    <path d="M 8.603515625 23.603515625  C 8.90950520833333 23.2975260416667  9.0625 22.9296875  9.0625 22.5  C 9.0625 22.0703125  8.90950520833333 21.7024739583333  8.603515625 21.396484375  C 8.29752604166667 21.0904947916667  7.9296875 20.9375  7.5 20.9375  C 7.0703125 20.9375  6.70247395833333 21.0904947916667  6.396484375 21.396484375  C 6.09049479166667 21.7024739583333  5.9375 22.0703125  5.9375 22.5  C 5.9375 22.9296875  6.09049479166667 23.2975260416667  6.396484375 23.603515625  C 6.70247395833333 23.9095052083333  7.0703125 24.0625  7.5 24.0625  C 7.9296875 24.0625  8.29752604166667 23.9095052083333  8.603515625 23.603515625  Z M 12.939453125 19.814453125  C 13.0631510416667 19.6907552083333  13.125 19.5442708333333  13 19.375  L 13 5.625  C 13.125 5.45572916666666  13.0631510416667 5.30924479166666  12.939453125 5.185546875  C 12.8157552083333 5.06184895833333  12.6692708333333 5  12.5 5  L 2.5 5  C 2.33072916666667 5  2.18424479166667 5.06184895833333  2.060546875 5.185546875  C 1.93684895833333 5.30924479166666  1.875 5.45572916666666  2 5.625  L 2 19.375  C 1.875 19.5442708333333  1.93684895833333 19.6907552083333  2.060546875 19.814453125  C 2.18424479166667 19.9381510416667  2.33072916666667 20  2.5 20  L 12.5 20  C 12.6692708333333 20  12.8157552083333 19.9381510416667  12.939453125 19.814453125  Z M 9.0625 3.125  C 9.27083333333334 3.125  9.375 3.02083333333333  9.375 2.8125  C 9.375 2.60416666666667  9.27083333333334 2.5  9.0625 2.5  L 5.9375 2.5  C 5.72916666666667 2.5  5.625 2.60416666666667  5.625 2.8125  C 5.625 3.02083333333333  5.72916666666667 3.125  5.9375 3.125  L 9.0625 3.125  Z M 14.2578125 0.742187499999999  C 14.7526041666667 1.23697916666667  15 1.82291666666667  15 2.5  L 15 22.5  C 15 23.1770833333333  14.7526041666667 23.7630208333333  14.2578125 24.2578125  C 13.7630208333333 24.7526041666667  13.1770833333333 25  12.5 25  L 2.5 25  C 1.82291666666667 25  1.23697916666667 24.7526041666667  0.7421875 24.2578125  C 0.247395833333333 23.7630208333333  0 23.1770833333333  0 22.5  L 0 2.5  C 0 1.82291666666667  0.247395833333333 1.23697916666667  0.7421875 0.742187499999999  C 1.23697916666667 0.24739583333333  1.82291666666667 0  2.5 0  L 12.5 0  C 13.1770833333333 0  13.7630208333333 0.24739583333333  14.2578125 0.742187499999999  Z " fill-rule="nonzero" fill="#000000" stroke="none" transform="matrix(1 0 0 1 3096 1153 )" />
  </g>
</svg>