<?xml version="1.0" encoding="utf-8"?>
<svg version="1.1" xmlns:xlink="http://www.w3.org/1999/xlink" width="18px" height="22px" xmlns="http://www.w3.org/2000/svg">
  <g transform="matrix(1 0 0 1 -3096 -1210 )">
    <path d="M 11.9953125 17.0729166666667  C 14.1984375 15.3159722222222  15.3 13.5972222222222  15.3 11.9166666666667  L 15.3 2.75  L 9 2.75  L 9 19.03515625  C 10.115625 18.43359375  11.1140625 17.7795138888889  11.9953125 17.0729166666667  Z M 17.7328125 0.272135416666666  C 17.9109375 0.453559027777775  18 0.668402777777775  18 0.916666666666666  L 18 11.9166666666667  C 18 12.7378472222222  17.84296875 13.5518663194444  17.52890625 14.3587239583333  C 17.21484375 15.1655815972222  16.82578125 15.8817274305556  16.36171875 16.5071614583333  C 15.89765625 17.1325954861111  15.34453125 17.7413194444444  14.70234375 18.3333333333333  C 14.06015625 18.9253472222222  13.4671875 19.4171006944444  12.9234375 19.80859375  C 12.3796875 20.2000868055556  11.8125 20.5700954861111  11.221875 20.9186197916667  C 10.63125 21.2671440972222  10.21171875 21.5034722222222  9.96328125 21.6276041666667  C 9.71484375 21.7517361111111  9.515625 21.8472222222222  9.365625 21.9140625  C 9.253125 21.9713541666667  9.13125 22  9 22  C 8.86875 22  8.746875 21.9713541666667  8.634375 21.9140625  C 8.484375 21.8472222222222  8.28515625 21.7517361111111  8.03671875 21.6276041666667  C 7.78828125 21.5034722222222  7.36875 21.2671440972222  6.778125 20.9186197916667  C 6.1875 20.5700954861111  5.6203125 20.2000868055556  5.0765625 19.80859375  C 4.5328125 19.4171006944444  3.93984375 18.9253472222222  3.29765625 18.3333333333333  C 2.65546875 17.7413194444444  2.10234375 17.1325954861111  1.63828125 16.5071614583333  C 1.17421875 15.8817274305556  0.78515625 15.1655815972222  0.47109375 14.3587239583333  C 0.15703125 13.5518663194444  0 12.7378472222222  0 11.9166666666667  L 0 0.916666666666666  C 0 0.668402777777775  0.0890625 0.453559027777775  0.2671875 0.272135416666666  C 0.4453125 0.0907118055555545  0.65625 0  0.9 0  L 17.1 0  C 17.34375 0  17.5546875 0.0907118055555545  17.7328125 0.272135416666666  Z " fill-rule="nonzero" fill="#000000" stroke="none" transform="matrix(1 0 0 1 3096 1210 )" />
  </g>
</svg>