<?xml version="1.0" encoding="utf-8"?>
<svg version="1.1" xmlns:xlink="http://www.w3.org/1999/xlink" width="86px" height="10px" preserveAspectRatio="xMinYMid meet" viewBox="2879 1577  86 8" xmlns="http://www.w3.org/2000/svg">
  <path d="M 2885 1581  L 2955 1581  A 5 5 0 0 0 2960 1576 L 2960 1213  A 5 5 0 0 1 2965 1208 L 3042 1208  " stroke-width="2" stroke="#0099ff" fill="none" />
  <path d="M 2882.5 1577.5  A 3.5 3.5 0 0 0 2879 1581 A 3.5 3.5 0 0 0 2882.5 1584.5 A 3.5 3.5 0 0 0 2886 1581 A 3.5 3.5 0 0 0 2882.5 1577.5 Z M 2882.5 1579.5  A 1.5 1.5 0 0 1 2884 1581 A 1.5 1.5 0 0 1 2882.5 1582.5 A 1.5 1.5 0 0 1 2881 1581 A 1.5 1.5 0 0 1 2882.5 1579.5 Z M 3034.6 1216  L 3044 1208  L 3034.6 1200  L 3038.2 1208  L 3034.6 1216  Z " fill-rule="nonzero" fill="#0099ff" stroke="none" />
</svg>