<?xml version="1.0" encoding="utf-8"?>
<svg version="1.1" xmlns:xlink="http://www.w3.org/1999/xlink" width="10px" height="239px" preserveAspectRatio="xMidYMin meet" viewBox="1936 70  8 239" xmlns="http://www.w3.org/2000/svg">
  <path d="M 1279 304  L 1935 304  A 5 5 0 0 0 1940 299 L 1940 80  A 5 5 0 0 1 1945 75 L 1962 75  " stroke-width="2" stroke="#0099ff" fill="none" />
  <path d="M 1276.5 300.5  A 3.5 3.5 0 0 0 1273 304 A 3.5 3.5 0 0 0 1276.5 307.5 A 3.5 3.5 0 0 0 1280 304 A 3.5 3.5 0 0 0 1276.5 300.5 Z M 1276.5 302.5  A 1.5 1.5 0 0 1 1278 304 A 1.5 1.5 0 0 1 1276.5 305.5 A 1.5 1.5 0 0 1 1275 304 A 1.5 1.5 0 0 1 1276.5 302.5 Z M 1954.6 83  L 1964 75  L 1954.6 67  L 1958.2 75  L 1954.6 83  Z " fill-rule="nonzero" fill="#0099ff" stroke="none" />
</svg>