<?xml version="1.0" encoding="utf-8"?>
<svg version="1.1" xmlns:xlink="http://www.w3.org/1999/xlink" width="21px" height="20px" preserveAspectRatio="xMinYMid meet" viewBox="2132 65  21 18" xmlns="http://www.w3.org/2000/svg">
  <path d="M 2145 74  L 2282.5 74  A 0.5 0.5 0 0 1 2283 74.5 A 0.5 0.5 0 0 0 2283.5 75 L 2426 75  " stroke-width="2" stroke="#0099ff" fill="none" />
  <path d="M 2142.5 70.5  A 3.5 3.5 0 0 0 2139 74 A 3.5 3.5 0 0 0 2142.5 77.5 A 3.5 3.5 0 0 0 2146 74 A 3.5 3.5 0 0 0 2142.5 70.5 Z M 2142.5 72.5  A 1.5 1.5 0 0 1 2144 74 A 1.5 1.5 0 0 1 2142.5 75.5 A 1.5 1.5 0 0 1 2141 74 A 1.5 1.5 0 0 1 2142.5 72.5 Z M 2418.6 83  L 2428 75  L 2418.6 67  L 2422.2 75  L 2418.6 83  Z " fill-rule="nonzero" fill="#0099ff" stroke="none" />
</svg>