<?xml version="1.0" encoding="utf-8"?>
<svg version="1.1" xmlns:xlink="http://www.w3.org/1999/xlink" width="10px" height="336px" preserveAspectRatio="xMidYMin meet" viewBox="772 192  8 336" xmlns="http://www.w3.org/2000/svg">
  <path d="M 776 198  L 776 518  A 5 5 0 0 1 771 523 L 640 523  A 5 5 0 0 0 635 528 L 635 853  " stroke-width="2" stroke="#0099ff" fill="none" />
  <path d="M 776 192  A 3.5 3.5 0 0 0 772.5 195.5 A 3.5 3.5 0 0 0 776 199 A 3.5 3.5 0 0 0 779.5 195.5 A 3.5 3.5 0 0 0 776 192 Z M 776 194  A 1.5 1.5 0 0 1 777.5 195.5 A 1.5 1.5 0 0 1 776 197 A 1.5 1.5 0 0 1 774.5 195.5 A 1.5 1.5 0 0 1 776 194 Z M 627 845.6  L 635 855  L 643 845.6  L 635 849.2  L 627 845.6  Z " fill-rule="nonzero" fill="#0099ff" stroke="none" />
</svg>