<?xml version="1.0" encoding="utf-8"?>
<svg version="1.1" xmlns:xlink="http://www.w3.org/1999/xlink" width="18px" height="10px" preserveAspectRatio="xMinYMid meet" viewBox="1945 1578  18 8" xmlns="http://www.w3.org/2000/svg">
  <path d="M 1957 1582  L 1955 1582  A 5 5 0 0 0 1950 1587 L 1950 2052  A 5 5 0 0 0 1955 2057 L 2006 2057  " stroke-width="2" stroke="#0099ff" fill="none" />
  <path d="M 1959.5 1578.5  A 3.5 3.5 0 0 0 1956 1582 A 3.5 3.5 0 0 0 1959.5 1585.5 A 3.5 3.5 0 0 0 1963 1582 A 3.5 3.5 0 0 0 1959.5 1578.5 Z M 1959.5 1580.5  A 1.5 1.5 0 0 1 1961 1582 A 1.5 1.5 0 0 1 1959.5 1583.5 A 1.5 1.5 0 0 1 1958 1582 A 1.5 1.5 0 0 1 1959.5 1580.5 Z M 1998.6 2065  L 2008 2057  L 1998.6 2049  L 2002.2 2057  L 1998.6 2065  Z " fill-rule="nonzero" fill="#0099ff" stroke="none" />
</svg>